<svg width="800" height="600" xmlns="http://www.w3.org/2000/svg" xmlns:xlink="http://www.w3.org/1999/xlink" overflow="hidden"><g><rect x="0" y="0" width="800" height="599.75"/><path d="M402 168.93 402 467.417" stroke="#FFFFFF" stroke-width="4.00167" stroke-miterlimit="8" stroke-dasharray="16.0067 12.005" fill="none" fill-rule="evenodd"/><path d="M43 319.867 782.308 319.867" stroke="#FFFFFF" stroke-width="4.00167" stroke-miterlimit="8" stroke-dasharray="16.0067 12.005" fill="none" fill-rule="evenodd"/><text fill="#FFFFFF" font-family="Inter,Inter_MSFontService,sans-serif" font-weight="700" font-size="18.6667" transform="matrix(1 0 0 0.999583 322.659 490)">Country’s</text><text fill="#FFFFFF" font-family="Inter,Inter_MSFontService,sans-serif" font-weight="700" font-size="18.6667" transform="matrix(1 0 0 0.999583 422.367 490)">share</text><text fill="#FFFFFF" font-family="Inter,Inter_MSFontService,sans-serif" font-weight="700" font-size="18.6667" transform="matrix(-1.83697e-16 -0.999167 1.00042 -1.8362e-16 32.1398 359)">Good’s</text><text fill="#FFFFFF" font-family="Inter,Inter_MSFontService,sans-serif" font-weight="700" font-size="18.6667" transform="matrix(-1.83697e-16 -0.999167 1.00042 -1.8362e-16 32.1398 285)">share</text><text fill="#FFFFFF" font-family="Inter Tight,Inter Tight_MSFontService,sans-serif" font-weight="700" font-size="18.6667" transform="matrix(1 0 0 0.999583 16.6072 27)">Comparative</text><text fill="#FFFFFF" font-family="Inter Tight,Inter Tight_MSFontService,sans-serif" font-weight="700" font-size="18.6667" transform="matrix(1 0 0 0.999583 127.654 27)"></text><text fill="#FFFFFF" font-family="Inter Tight,Inter Tight_MSFontService,sans-serif" font-weight="700" font-size="18.6667" transform="matrix(1 0 0 0.999583 131.322 27)">Advantage</text><text fill="#FFFFFF" font-family="Inter Tight,Inter Tight_MSFontService,sans-serif" font-weight="700" font-size="18.6667" transform="matrix(1 0 0 0.999583 225.361 27)"></text><text fill="#FFFFFF" font-family="Inter Tight,Inter Tight_MSFontService,sans-serif" font-weight="700" font-size="18.6667" transform="matrix(1 0 0 0.999583 229.029 27)">(Santiago</text><text fill="#FFFFFF" font-family="Inter Tight,Inter Tight_MSFontService,sans-serif" font-weight="700" font-size="18.6667" transform="matrix(1 0 0 0.999583 312.064 27)"></text><text fill="#FFFFFF" font-family="Inter Tight,Inter Tight_MSFontService,sans-serif" font-weight="700" font-size="18.6667" transform="matrix(1 0 0 0.999583 315.732 27)">Methodology</text><text fill="#FFFFFF" font-family="Inter Tight,Inter Tight_MSFontService,sans-serif" font-weight="700" font-size="18.6667" transform="matrix(1 0 0 0.999583 430.446 27)">)</text><text fill="#FFFFFF" font-family="Inter Tight,Inter Tight_MSFontService,sans-serif" font-weight="700" font-size="18.6667" transform="matrix(1 0 0 0.999583 436.949 27)"></text><text fill="#FFFFFF" font-family="Inter,Inter_MSFontService,sans-serif" font-weight="400" font-size="14.6667" transform="matrix(1 0 0 0.999583 16.6072 63)">The</text><text fill="#FFFFFF" font-family="Inter,Inter_MSFontService,sans-serif" font-weight="400" font-size="14.6667" transform="matrix(1 0 0 0.999583 48.7873 63)">Santiago</text><text fill="#FFFFFF" font-family="Inter,Inter_MSFontService,sans-serif" font-weight="400" font-size="14.6667" transform="matrix(1 0 0 0.999583 114.815 63)">Methodology</text><text fill="#FFFFFF" font-family="Inter,Inter_MSFontService,sans-serif" font-weight="400" font-size="14.6667" transform="matrix(1 0 0 0.999583 206.186 63)">,</text><text fill="#FFFFFF" font-family="Inter,Inter_MSFontService,sans-serif" font-weight="400" font-size="14.6667" transform="matrix(1 0 0 0.999583 215.857 63)">developed</text><text fill="#FFFFFF" font-family="Inter,Inter_MSFontService,sans-serif" font-weight="400" font-size="14.6667" transform="matrix(1 0 0 0.999583 294.39 63)">by</text><text fill="#FFFFFF" font-family="Inter,Inter_MSFontService,sans-serif" font-weight="400" font-size="14.6667" transform="matrix(1 0 0 0.999583 317.066 63)">Santiago</text><text fill="#FFFFFF" font-family="Inter,Inter_MSFontService,sans-serif" font-weight="400" font-size="14.6667" transform="matrix(1 0 0 0.999583 383.093 63)">Plata</text><text fill="#FFFFFF" font-family="Inter,Inter_MSFontService,sans-serif" font-weight="400" font-size="14.6667" transform="matrix(1 0 0 0.999583 422.61 63)">Muñoz,</text><text fill="#FFFFFF" font-family="Inter,Inter_MSFontService,sans-serif" font-weight="400" font-size="14.6667" transform="matrix(1 0 0 0.999583 485.303 63)">is</text><text fill="#FFFFFF" font-family="Inter,Inter_MSFontService,sans-serif" font-weight="400" font-size="14.6667" transform="matrix(1 0 0 0.999583 501.976 63)">structured</text><text fill="#FFFFFF" font-family="Inter,Inter_MSFontService,sans-serif" font-weight="400" font-size="14.6667" transform="matrix(1 0 0 0.999583 579.008 63)">around</text><text fill="#FFFFFF" font-family="Inter,Inter_MSFontService,sans-serif" font-weight="400" font-size="14.6667" transform="matrix(1 0 0 0.999583 633.364 63)">Balassa's</text><text fill="#FFFFFF" font-family="Inter,Inter_MSFontService,sans-serif" font-weight="400" font-size="14.6667" transform="matrix(1 0 0 0.999583 703.894 63)">concept</text><text fill="#FFFFFF" font-family="Inter,Inter_MSFontService,sans-serif" font-weight="400" font-size="14.6667" transform="matrix(1 0 0 0.999583 765.919 63)">of</text><text fill="#FFFFFF" font-family="Inter,Inter_MSFontService,sans-serif" font-weight="400" font-size="14.6667" transform="matrix(1 0 0 0.999583 16.6072 81)">Revealed</text><text fill="#FFFFFF" font-family="Inter,Inter_MSFontService,sans-serif" font-weight="400" font-size="14.6667" transform="matrix(1 0 0 0.999583 89.1841 81)">Comparative</text><text fill="#FFFFFF" font-family="Inter,Inter_MSFontService,sans-serif" font-weight="400" font-size="14.6667" transform="matrix(1 0 0 0.999583 186.105 81)">Advantage</text><text fill="#FFFFFF" font-family="Inter,Inter_MSFontService,sans-serif" font-weight="400" font-size="14.6667" transform="matrix(1 0 0 0.999583 269.519 81)">(RCA),</text><text fill="#FFFFFF" font-family="Inter,Inter_MSFontService,sans-serif" font-weight="400" font-size="14.6667" transform="matrix(1 0 0 0.999583 323.415 81)">which</text><text fill="#FFFFFF" font-family="Inter,Inter_MSFontService,sans-serif" font-weight="400" font-size="14.6667" transform="matrix(1 0 0 0.999583 373.309 81)">identifies</text><text fill="#FFFFFF" font-family="Inter,Inter_MSFontService,sans-serif" font-weight="400" font-size="14.6667" transform="matrix(1 0 0 0.999583 445.212 81)">a</text><text fill="#FFFFFF" font-family="Inter,Inter_MSFontService,sans-serif" font-weight="400" font-size="14.6667" transform="matrix(1 0 0 0.999583 462.093 81)">country's</text><text fill="#FFFFFF" font-family="Inter,Inter_MSFontService,sans-serif" font-weight="400" font-size="14.6667" transform="matrix(1 0 0 0.999583 535.83 81)">relative</text><text fill="#FFFFFF" font-family="Inter,Inter_MSFontService,sans-serif" font-weight="400" font-size="14.6667" transform="matrix(1 0 0 0.999583 595.228 81)">advantage</text><text fill="#FFFFFF" font-family="Inter,Inter_MSFontService,sans-serif" font-weight="400" font-size="14.6667" transform="matrix(1 0 0 0.999583 676.636 81)">in</text><text fill="#FFFFFF" font-family="Inter,Inter_MSFontService,sans-serif" font-weight="400" font-size="14.6667" transform="matrix(1 0 0 0.999583 697.518 81)">exporting</text><text fill="#FFFFFF" font-family="Inter,Inter_MSFontService,sans-serif" font-weight="400" font-size="14.6667" transform="matrix(1 0 0 0.999583 772.089 81)">a</text><text fill="#FFFFFF" font-family="Inter,Inter_MSFontService,sans-serif" font-weight="400" font-size="14.6667" transform="matrix(1 0 0 0.999583 16.6072 98)">particular</text><text fill="#FFFFFF" font-family="Inter,Inter_MSFontService,sans-serif" font-weight="400" font-size="14.6667" transform="matrix(1 0 0 0.999583 85.9695 98)">good</text><text fill="#FFFFFF" font-family="Inter,Inter_MSFontService,sans-serif" font-weight="400" font-size="14.6667" transform="matrix(1 0 0 0.999583 125.819 98)">compared</text><text fill="#FFFFFF" font-family="Inter,Inter_MSFontService,sans-serif" font-weight="400" font-size="14.6667" transform="matrix(1 0 0 0.999583 200.184 98)">to</text><text fill="#FFFFFF" font-family="Inter,Inter_MSFontService,sans-serif" font-weight="400" font-size="14.6667" transform="matrix(1 0 0 0.999583 218.024 98)">the</text><text fill="#FFFFFF" font-family="Inter,Inter_MSFontService,sans-serif" font-weight="400" font-size="14.6667" transform="matrix(1 0 0 0.999583 244.202 98)">global</text><text fill="#FFFFFF" font-family="Inter,Inter_MSFontService,sans-serif" font-weight="400" font-size="14.6667" transform="matrix(1 0 0 0.999583 290.388 98)">average</text><text fill="#FFFFFF" font-family="Inter,Inter_MSFontService,sans-serif" font-weight="400" font-size="14.6667" transform="matrix(1 0 0 0.999583 346.411 98)">.</text><text fill="#FFFFFF" font-family="Inter,Inter_MSFontService,sans-serif" font-weight="400" font-size="14.6667" transform="matrix(1 0 0 0.999583 16.6072 133)">The</text><text fill="#FFFFFF" font-family="Inter,Inter_MSFontService,sans-serif" font-weight="400" font-size="14.6667" transform="matrix(1 0 0 0.999583 53.7894 133)">methodology</text><text fill="#FFFFFF" font-family="Inter,Inter_MSFontService,sans-serif" font-weight="400" font-size="14.6667" transform="matrix(1 0 0 0.999583 155.332 133)">highlights</text><text fill="#FFFFFF" font-family="Inter,Inter_MSFontService,sans-serif" font-weight="400" font-size="14.6667" transform="matrix(1 0 0 0.999583 232.864 133)">goods</text><text fill="#FFFFFF" font-family="Inter,Inter_MSFontService,sans-serif" font-weight="400" font-size="14.6667" transform="matrix(1 0 0 0.999583 286.72 133)">that</text><text fill="#FFFFFF" font-family="Inter,Inter_MSFontService,sans-serif" font-weight="400" font-size="14.6667" transform="matrix(1 0 0 0.999583 323.735 133)">hold</text><text fill="#FFFFFF" font-family="Inter,Inter_MSFontService,sans-serif" font-weight="400" font-size="14.6667" transform="matrix(1 0 0 0.999583 364.252 133)">the</text><text fill="#FFFFFF" font-family="Inter,Inter_MSFontService,sans-serif" font-weight="400" font-size="14.6667" transform="matrix(1 0 0 0.999583 396.766 133)">most</text><text fill="#FFFFFF" font-family="Inter,Inter_MSFontService,sans-serif" font-weight="400" font-size="14.6667" transform="matrix(1 0 0 0.999583 441.451 133)">significant</text><text fill="#FFFFFF" font-family="Inter,Inter_MSFontService,sans-serif" font-weight="400" font-size="14.6667" transform="matrix(1 0 0 0.999583 523.318 133)">share</text><text fill="#FFFFFF" font-family="Inter,Inter_MSFontService,sans-serif" font-weight="400" font-size="14.6667" transform="matrix(1 0 0 0.999583 572.339 133)">of</text><text fill="#FFFFFF" font-family="Inter,Inter_MSFontService,sans-serif" font-weight="400" font-size="14.6667" transform="matrix(1 0 0 0.999583 597.182 133)">the</text><text fill="#FFFFFF" font-family="Inter,Inter_MSFontService,sans-serif" font-weight="400" font-size="14.6667" transform="matrix(1 0 0 0.999583 629.696 133)">country's</text><text fill="#FFFFFF" font-family="Inter,Inter_MSFontService,sans-serif" font-weight="400" font-size="14.6667" transform="matrix(1 0 0 0.999583 705.227 133)">exports</text><text fill="#FFFFFF" font-family="Inter,Inter_MSFontService,sans-serif" font-weight="400" font-size="14.6667" transform="matrix(1 0 0 0.999583 768.087 133)">in</text><text fill="#FFFFFF" font-family="Inter,Inter_MSFontService,sans-serif" font-weight="400" font-size="14.6667" transform="matrix(1 0 0 0.999583 16.6072 151)">international</text><text fill="#FFFFFF" font-family="Inter,Inter_MSFontService,sans-serif" font-weight="400" font-size="14.6667" transform="matrix(1 0 0 0.999583 106.145 151)">trade</text><text fill="#FFFFFF" font-family="Inter,Inter_MSFontService,sans-serif" font-weight="400" font-size="14.6667" transform="matrix(1 0 0 0.999583 142.16 151)">,</text><text fill="#FFFFFF" font-family="Inter,Inter_MSFontService,sans-serif" font-weight="400" font-size="14.6667" transform="matrix(1 0 0 0.999583 150.496 151)">as</text><text fill="#FFFFFF" font-family="Inter,Inter_MSFontService,sans-serif" font-weight="400" font-size="14.6667" transform="matrix(1 0 0 0.999583 170.505 151)">well</text><text fill="#FFFFFF" font-family="Inter,Inter_MSFontService,sans-serif" font-weight="400" font-size="14.6667" transform="matrix(1 0 0 0.999583 202.185 151)">as</text><text fill="#FFFFFF" font-family="Inter,Inter_MSFontService,sans-serif" font-weight="400" font-size="14.6667" transform="matrix(1 0 0 0.999583 222.193 151)">those</text><text fill="#FFFFFF" font-family="Inter,Inter_MSFontService,sans-serif" font-weight="400" font-size="14.6667" transform="matrix(1 0 0 0.999583 264.877 151)">that</text><text fill="#FFFFFF" font-family="Inter,Inter_MSFontService,sans-serif" font-weight="400" font-size="14.6667" transform="matrix(1 0 0 0.999583 295.557 151)">represent</text><text fill="#FFFFFF" font-family="Inter,Inter_MSFontService,sans-serif" font-weight="400" font-size="14.6667" transform="matrix(1 0 0 0.999583 366.42 151)">the</text><text fill="#FFFFFF" font-family="Inter,Inter_MSFontService,sans-serif" font-weight="400" font-size="14.6667" transform="matrix(1 0 0 0.999583 392.597 151)">highest</text><text fill="#FFFFFF" font-family="Inter,Inter_MSFontService,sans-serif" font-weight="400" font-size="14.6667" transform="matrix(1 0 0 0.999583 447.62 151)">export</text><text fill="#FFFFFF" font-family="Inter,Inter_MSFontService,sans-serif" font-weight="400" font-size="14.6667" transform="matrix(1 0 0 0.999583 496.474 151)">volumes</text><text fill="#FFFFFF" font-family="Inter,Inter_MSFontService,sans-serif" font-weight="400" font-size="14.6667" transform="matrix(1 0 0 0.999583 558.833 151)">globally</text><text fill="#FFFFFF" font-family="Inter,Inter_MSFontService,sans-serif" font-weight="400" font-size="14.6667" transform="matrix(1 0 0 0.999583 612.522 151)">.</text><text fill="#FFFFFF" font-family="Inter,Inter_MSFontService,sans-serif" font-weight="700" font-size="14.6667" transform="matrix(1 0 0 0.999583 18.9343 474)">Where</text><text fill="#FFFFFF" font-family="Inter,Inter_MSFontService,sans-serif" font-weight="700" font-size="14.6667" transform="matrix(1 0 0 0.999583 66.6208 474)">:</text><text fill="#FFFFFF" font-family="Arial,Arial_MSFontService,sans-serif" font-weight="400" font-size="14.6667" transform="matrix(1 0 0 0.999583 18.9343 509)">•</text><text fill="#FFFFFF" font-family="Cambria Math,Cambria Math_MSFontService,sans-serif" font-weight="400" font-size="14.6667" transform="matrix(1 0 0 0.999583 33.9405 509)">𝐶𝑜𝑢𝑛𝑡𝑟</text><text fill="#FFFFFF" font-family="Cambria Math,Cambria Math_MSFontService,sans-serif" font-weight="400" font-size="14.6667" transform="matrix(1 0 0 0.999583 80.4466 509)">𝑦</text><text fill="#FFFFFF" font-family="Cambria Math,Cambria Math_MSFontService,sans-serif" font-weight="400" font-size="10.7067" transform="matrix(1 0 0 0.999583 89.337 503)">′</text><text fill="#FFFFFF" font-family="Cambria Math,Cambria Math_MSFontService,sans-serif" font-weight="400" font-size="14.6667" transform="matrix(1 0 0 0.999583 93.7788 509)">𝑠</text><text fill="#FFFFFF" font-family="Cambria Math,Cambria Math_MSFontService,sans-serif" font-weight="400" font-size="14.6667" transform="matrix(1 0 0 0.999583 100.915 509)"></text><text fill="#FFFFFF" font-family="Cambria Math,Cambria Math_MSFontService,sans-serif" font-weight="400" font-size="14.6667" transform="matrix(1 0 0 0.999583 104.083 509)">𝑠ℎ𝑎𝑟𝑒</text><text fill="#FFFFFF" font-family="Cambria Math,Cambria Math_MSFontService,sans-serif" font-weight="400" font-size="14.6667" transform="matrix(1 0 0 0.999583 145.994 509)">=</text><text fill="#FFFFFF" font-family="Cambria Math,Cambria Math_MSFontService,sans-serif" font-weight="400" font-size="14.6667" transform="matrix(1 0 0 0.999583 161.074 509)"></text><text fill="#FFFFFF" font-family="Cambria Math,Cambria Math_MSFontService,sans-serif" font-weight="400" font-size="14.6667" transform="matrix(1 0 0 0.999583 164.242 509)">𝑋</text><text fill="#FFFFFF" font-family="Cambria Math,Cambria Math_MSFontService,sans-serif" font-weight="400" font-size="10.7067" transform="matrix(1 0 0 0.999583 173.099 512)">𝑖𝑗</text><text fill="#FFFFFF" font-family="Cambria Math,Cambria Math_MSFontService,sans-serif" font-weight="400" font-size="14.6667" transform="matrix(1 0 0 0.999583 182.909 509)">/</text><text fill="#FFFFFF" font-family="Cambria Math,Cambria Math_MSFontService,sans-serif" font-weight="400" font-size="14.6667" transform="matrix(1 0 0 0.999583 190.079 509)">𝑋</text><text fill="#FFFFFF" font-family="Cambria Math,Cambria Math_MSFontService,sans-serif" font-weight="400" font-size="10.7067" transform="matrix(1 0 0 0.999583 198.936 512)">𝑤𝑗</text><text fill="#FFFFFF" font-family="Arial,Arial_MSFontService,sans-serif" font-weight="400" font-size="14.6667" transform="matrix(1 0 0 0.999583 18.9343 528)">•</text><text fill="#FFFFFF" font-family="Cambria Math,Cambria Math_MSFontService,sans-serif" font-weight="400" font-size="14.6667" transform="matrix(1 0 0 0.999583 33.9405 528)">𝐺𝑜𝑜</text><text fill="#FFFFFF" font-family="Cambria Math,Cambria Math_MSFontService,sans-serif" font-weight="400" font-size="14.6667" transform="matrix(1 0 0 0.999583 59.1044 528)">𝑑</text><text fill="#FFFFFF" font-family="Cambria Math,Cambria Math_MSFontService,sans-serif" font-weight="400" font-size="10.7067" transform="matrix(1 0 0 0.999583 68.0748 522)">′</text><text fill="#FFFFFF" font-family="Cambria Math,Cambria Math_MSFontService,sans-serif" font-weight="400" font-size="14.6667" transform="matrix(1 0 0 0.999583 72.5166 528)">𝑠</text><text fill="#FFFFFF" font-family="Cambria Math,Cambria Math_MSFontService,sans-serif" font-weight="400" font-size="14.6667" transform="matrix(1 0 0 0.999583 79.6529 528)"></text><text fill="#FFFFFF" font-family="Cambria Math,Cambria Math_MSFontService,sans-serif" font-weight="400" font-size="14.6667" transform="matrix(1 0 0 0.999583 82.8209 528)">𝑠ℎ𝑎𝑟𝑒</text><text fill="#FFFFFF" font-family="Cambria Math,Cambria Math_MSFontService,sans-serif" font-weight="400" font-size="14.6667" transform="matrix(1 0 0 0.999583 124.732 528)">=</text><text fill="#FFFFFF" font-family="Cambria Math,Cambria Math_MSFontService,sans-serif" font-weight="400" font-size="14.6667" transform="matrix(1 0 0 0.999583 139.811 528)">𝑋</text><text fill="#FFFFFF" font-family="Cambria Math,Cambria Math_MSFontService,sans-serif" font-weight="400" font-size="10.7067" transform="matrix(1 0 0 0.999583 148.668 531)">𝑤𝑗</text><text fill="#FFFFFF" font-family="Cambria Math,Cambria Math_MSFontService,sans-serif" font-weight="400" font-size="14.6667" transform="matrix(1 0 0 0.999583 163.481 528)">/</text><text fill="#FFFFFF" font-family="Cambria Math,Cambria Math_MSFontService,sans-serif" font-weight="400" font-size="14.6667" transform="matrix(1 0 0 0.999583 170.651 528)">𝑋</text><text fill="#FFFFFF" font-family="Cambria Math,Cambria Math_MSFontService,sans-serif" font-weight="400" font-size="10.7067" transform="matrix(1 0 0 0.999583 179.508 531)">𝑤𝑡</text><text fill="#FFFFFF" font-family="Arial,Arial_MSFontService,sans-serif" font-weight="400" font-size="14.6667" transform="matrix(1 0 0 0.999583 18.9343 547)">•</text><text fill="#FFFFFF" font-family="Cambria Math,Cambria Math_MSFontService,sans-serif" font-weight="400" font-size="14.6667" transform="matrix(1 0 0 0.999583 33.9405 547)">𝑋</text><text fill="#FFFFFF" font-family="Cambria Math,Cambria Math_MSFontService,sans-serif" font-weight="400" font-size="10.7067" transform="matrix(1 0 0 0.999583 42.7976 550)">𝑖𝑗</text><text fill="#FFFFFF" font-family="Cambria Math,Cambria Math_MSFontService,sans-serif" font-weight="400" font-size="14.6667" transform="matrix(1 0 0 0.999583 56.6834 547)">=</text><text fill="#FFFFFF" font-family="Cambria Math,Cambria Math_MSFontService,sans-serif" font-weight="400" font-size="14.6667" transform="matrix(1 0 0 0.999583 71.763 547)">𝑒𝑥𝑝𝑜𝑟𝑡𝑠</text><text fill="#FFFFFF" font-family="Cambria Math,Cambria Math_MSFontService,sans-serif" font-weight="400" font-size="14.6667" transform="matrix(1 0 0 0.999583 122.918 547)"></text><text fill="#FFFFFF" font-family="Cambria Math,Cambria Math_MSFontService,sans-serif" font-weight="400" font-size="14.6667" transform="matrix(1 0 0 0.999583 126.086 547)">𝑜𝑓</text><text fill="#FFFFFF" font-family="Cambria Math,Cambria Math_MSFontService,sans-serif" font-weight="400" font-size="14.6667" transform="matrix(1 0 0 0.999583 142.352 547)"></text><text fill="#FFFFFF" font-family="Cambria Math,Cambria Math_MSFontService,sans-serif" font-weight="400" font-size="14.6667" transform="matrix(1 0 0 0.999583 145.52 547)">𝑐𝑜𝑢𝑛𝑡𝑟𝑦</text><text fill="#FFFFFF" font-family="Cambria Math,Cambria Math_MSFontService,sans-serif" font-weight="400" font-size="14.6667" transform="matrix(1 0 0 0.999583 197.962 547)"></text><text fill="#FFFFFF" font-family="Cambria Math,Cambria Math_MSFontService,sans-serif" font-weight="400" font-size="14.6667" transform="matrix(1 0 0 0.999583 201.13 547)">𝑖</text><text fill="#FFFFFF" font-family="Cambria Math,Cambria Math_MSFontService,sans-serif" font-weight="400" font-size="14.6667" transform="matrix(1 0 0 0.999583 206.266 547)"></text><text fill="#FFFFFF" font-family="Cambria Math,Cambria Math_MSFontService,sans-serif" font-weight="400" font-size="14.6667" transform="matrix(1 0 0 0.999583 209.434 547)">𝑖𝑛</text><text fill="#FFFFFF" font-family="Cambria Math,Cambria Math_MSFontService,sans-serif" font-weight="400" font-size="14.6667" transform="matrix(1 0 0 0.999583 222.693 547)"></text><text fill="#FFFFFF" font-family="Cambria Math,Cambria Math_MSFontService,sans-serif" font-weight="400" font-size="14.6667" transform="matrix(1 0 0 0.999583 225.861 547)">𝑔𝑜𝑜𝑑</text><text fill="#FFFFFF" font-family="Cambria Math,Cambria Math_MSFontService,sans-serif" font-weight="400" font-size="14.6667" transform="matrix(1 0 0 0.999583 259.508 547)"></text><text fill="#FFFFFF" font-family="Cambria Math,Cambria Math_MSFontService,sans-serif" font-weight="400" font-size="14.6667" transform="matrix(1 0 0 0.999583 262.676 547)">𝑗</text><text fill="#FFFFFF" font-family="Arial,Arial_MSFontService,sans-serif" font-weight="400" font-size="14.6667" transform="matrix(1 0 0 0.999583 18.9343 566)">•</text><text fill="#FFFFFF" font-family="Cambria Math,Cambria Math_MSFontService,sans-serif" font-weight="400" font-size="14.6667" transform="matrix(1 0 0 0.999583 33.9405 566)">𝑋</text><text fill="#FFFFFF" font-family="Cambria Math,Cambria Math_MSFontService,sans-serif" font-weight="400" font-size="10.7067" transform="matrix(1 0 0 0.999583 42.7976 569)">𝑤𝑗</text><text fill="#FFFFFF" font-family="Cambria Math,Cambria Math_MSFontService,sans-serif" font-weight="400" font-size="14.6667" transform="matrix(1 0 0 0.999583 61.6854 566)">=</text><text fill="#FFFFFF" font-family="Cambria Math,Cambria Math_MSFontService,sans-serif" font-weight="400" font-size="14.6667" transform="matrix(1 0 0 0.999583 76.7651 566)">𝑤𝑜𝑟𝑙𝑑</text><text fill="#FFFFFF" font-family="Cambria Math,Cambria Math_MSFontService,sans-serif" font-weight="400" font-size="14.6667" transform="matrix(1 0 0 0.999583 116.081 566)"></text><text fill="#FFFFFF" font-family="Cambria Math,Cambria Math_MSFontService,sans-serif" font-weight="400" font-size="14.6667" transform="matrix(1 0 0 0.999583 119.249 566)">𝑒𝑥𝑝𝑜𝑟𝑡𝑠</text><text fill="#FFFFFF" font-family="Cambria Math,Cambria Math_MSFontService,sans-serif" font-weight="400" font-size="14.6667" transform="matrix(1 0 0 0.999583 170.404 566)"></text><text fill="#FFFFFF" font-family="Cambria Math,Cambria Math_MSFontService,sans-serif" font-weight="400" font-size="14.6667" transform="matrix(1 0 0 0.999583 173.572 566)">𝑜𝑓</text><text fill="#FFFFFF" font-family="Cambria Math,Cambria Math_MSFontService,sans-serif" font-weight="400" font-size="14.6667" transform="matrix(1 0 0 0.999583 189.839 566)"></text><text fill="#FFFFFF" font-family="Cambria Math,Cambria Math_MSFontService,sans-serif" font-weight="400" font-size="14.6667" transform="matrix(1 0 0 0.999583 193.007 566)">𝑔𝑜𝑜𝑑</text><text fill="#FFFFFF" font-family="Cambria Math,Cambria Math_MSFontService,sans-serif" font-weight="400" font-size="14.6667" transform="matrix(1 0 0 0.999583 226.654 566)"></text><text fill="#FFFFFF" font-family="Cambria Math,Cambria Math_MSFontService,sans-serif" font-weight="400" font-size="14.6667" transform="matrix(1 0 0 0.999583 229.822 566)">𝑗</text><text fill="#FFFFFF" font-family="Cambria Math,Cambria Math_MSFontService,sans-serif" font-weight="400" font-size="14.6667" transform="matrix(1 0 0 0.999583 235.411 566)"></text><text fill="#FFFFFF" font-family="Arial,Arial_MSFontService,sans-serif" font-weight="400" font-size="14.6667" transform="matrix(1 0 0 0.999583 18.9343 587)">•</text><text fill="#FFFFFF" font-family="Cambria Math,Cambria Math_MSFontService,sans-serif" font-weight="400" font-size="14.6667" transform="matrix(1 0 0 0.999583 33.9405 587)">𝑋</text><text fill="#FFFFFF" font-family="Cambria Math,Cambria Math_MSFontService,sans-serif" font-weight="400" font-size="10.7067" transform="matrix(1 0 0 0.999583 42.7976 590)">𝑤𝑡</text><text fill="#FFFFFF" font-family="Cambria Math,Cambria Math_MSFontService,sans-serif" font-weight="400" font-size="14.6667" transform="matrix(1 0 0 0.999583 61.2719 587)">=</text><text fill="#FFFFFF" font-family="Cambria Math,Cambria Math_MSFontService,sans-serif" font-weight="400" font-size="14.6667" transform="matrix(1 0 0 0.999583 76.3515 587)">𝑡𝑜𝑡𝑎𝑙</text><text fill="#FFFFFF" font-family="Cambria Math,Cambria Math_MSFontService,sans-serif" font-weight="400" font-size="14.6667" transform="matrix(1 0 0 0.999583 109.165 587)"></text><text fill="#FFFFFF" font-family="Cambria Math,Cambria Math_MSFontService,sans-serif" font-weight="400" font-size="14.6667" transform="matrix(1 0 0 0.999583 112.333 587)">𝑤𝑜𝑟𝑙𝑑</text><text fill="#FFFFFF" font-family="Cambria Math,Cambria Math_MSFontService,sans-serif" font-weight="400" font-size="14.6667" transform="matrix(1 0 0 0.999583 151.65 587)"></text><text fill="#FFFFFF" font-family="Cambria Math,Cambria Math_MSFontService,sans-serif" font-weight="400" font-size="14.6667" transform="matrix(1 0 0 0.999583 154.818 587)">𝑒𝑥𝑝𝑜𝑟𝑡𝑠</text><text fill="#C2F1C8" font-family="Inter,Inter_MSFontService,sans-serif" font-style="italic" font-weight="400" font-size="12" transform="matrix(1 0 0 0.999583 629.363 311)">Product’s</text><text fill="#C2F1C8" font-family="Inter,Inter_MSFontService,sans-serif" font-style="italic" font-weight="400" font-size="12" transform="matrix(1 0 0 0.999583 687.387 311)">share median</text><text fill="#C2F1C8" font-family="Inter,Inter_MSFontService,sans-serif" font-style="italic" font-weight="400" font-size="12" transform="matrix(-1.83697e-16 -0.999167 1.00042 -1.8362e-16 390.11 305)">Country’s</text><text fill="#C2F1C8" font-family="Inter,Inter_MSFontService,sans-serif" font-style="italic" font-weight="400" font-size="12" transform="matrix(-1.83697e-16 -0.999167 1.00042 -1.8362e-16 390.11 246)">share median</text><path d="M3.06084e-05 10.6906 10.6907 10.6906 13.9942 0 17.2977 10.6906 27.9883 10.6906 19.3394 17.2977 22.643 27.9883 13.9942 21.3811 5.3453 27.9883 8.64896 17.2977Z" stroke="#FFC000" stroke-width="2" stroke-miterlimit="8" fill="#FFC000" fill-rule="evenodd" transform="matrix(-1.00042 0 0 1 613 163.932)"/><text fill="#FFFFFF" font-family="Inter,Inter_MSFontService,sans-serif" font-weight="700" font-size="14.6667" transform="matrix(1 0 0 0.999583 567.528 211)">Star</text><text fill="#FFFFFF" font-family="Inter,Inter_MSFontService,sans-serif" font-weight="700" font-size="14.6667" transform="matrix(1 0 0 0.999583 600.542 211)">goods</text><text fill="#FFFFFF" font-family="Inter,Inter_MSFontService,sans-serif" font-weight="400" font-size="14.6667" transform="matrix(1 0 0 0.999583 460.817 246)">Goods with strong global export presence</text><text fill="#FFFFFF" font-family="Inter,Inter_MSFontService,sans-serif" font-weight="400" font-size="14.6667" transform="matrix(1 0 0 0.999583 473.322 264)">and high market share for the country.</text><text fill="#FFC000" font-family="Inter,Inter_MSFontService,sans-serif" font-weight="700" font-size="21.3333" transform="matrix(1 0 0 0.999583 592.381 364)">S</text><text fill="#FFFFFF" font-family="Inter,Inter_MSFontService,sans-serif" font-weight="700" font-size="14.6667" transform="matrix(1 0 0 0.999583 533.856 384)">Specialized</text><text fill="#FFFFFF" font-family="Inter,Inter_MSFontService,sans-serif" font-weight="700" font-size="14.6667" transform="matrix(1 0 0 0.999583 620.226 384)">goods</text><text fill="#FFFFFF" font-family="Inter,Inter_MSFontService,sans-serif" font-weight="400" font-size="14.6667" transform="matrix(1 0 0 0.999583 470.663 419)">Goods</text><text fill="#FFFFFF" font-family="Inter,Inter_MSFontService,sans-serif" font-weight="400" font-size="14.6667" transform="matrix(1 0 0 0.999583 520.184 419)">with</text><text fill="#FFFFFF" font-family="Inter,Inter_MSFontService,sans-serif" font-weight="400" font-size="14.6667" transform="matrix(1 0 0 0.999583 553.365 419)">high</text><text fill="#FFFFFF" font-family="Inter,Inter_MSFontService,sans-serif" font-weight="400" font-size="14.6667" transform="matrix(1 0 0 0.999583 587.379 419)">market</text><text fill="#FFFFFF" font-family="Inter,Inter_MSFontService,sans-serif" font-weight="400" font-size="14.6667" transform="matrix(1 0 0 0.999583 639.4 419)">share</text><text fill="#FFFFFF" font-family="Inter,Inter_MSFontService,sans-serif" font-weight="400" font-size="14.6667" transform="matrix(1 0 0 0.999583 682.085 419)">for</text><text fill="#FFFFFF" font-family="Inter,Inter_MSFontService,sans-serif" font-weight="400" font-size="14.6667" transform="matrix(1 0 0 0.999583 706.095 419)">the</text><text fill="#FFFFFF" font-family="Inter,Inter_MSFontService,sans-serif" font-weight="400" font-size="14.6667" transform="matrix(1 0 0 0.999583 570.792 436)">country.</text><text fill="#FFC000" font-family="Inter,Inter_MSFontService,sans-serif" font-weight="700" font-size="21.3333" transform="matrix(1 0 0 0.999583 210.737 361)">L</text><text fill="#FFFFFF" font-family="Inter,Inter_MSFontService,sans-serif" font-weight="700" font-size="14.6667" transform="matrix(1 0 0 0.999583 155.714 381)">Low share</text><text fill="#FFFFFF" font-family="Inter,Inter_MSFontService,sans-serif" font-weight="700" font-size="14.6667" transform="matrix(1 0 0 0.999583 233.079 381)">goods</text><text fill="#FFFFFF" font-family="Inter,Inter_MSFontService,sans-serif" font-weight="400" font-size="14.6667" transform="matrix(1 0 0 0.999583 66.2564 416)">Goods with low global export presence and</text><text fill="#FFFFFF" font-family="Inter,Inter_MSFontService,sans-serif" font-weight="400" font-size="14.6667" transform="matrix(1 0 0 0.999583 94.6883 433)">below</text><text fill="#FFFFFF" font-family="Inter,Inter_MSFontService,sans-serif" font-weight="400" font-size="14.6667" transform="matrix(1 0 0 0.999583 136.539 433)">-</text><text fill="#FFFFFF" font-family="Inter,Inter_MSFontService,sans-serif" font-weight="400" font-size="14.6667" transform="matrix(1 0 0 0.999583 143.208 433)">median market share for the</text><text fill="#FFFFFF" font-family="Inter,Inter_MSFontService,sans-serif" font-weight="400" font-size="14.6667" transform="matrix(1 0 0 0.999583 188.141 451)">country.</text><text fill="#FFC000" font-family="Inter,Inter_MSFontService,sans-serif" font-weight="700" font-size="21.3333" transform="matrix(1 0 0 0.999583 201.323 187)">H</text><text fill="#FFFFFF" font-family="Inter,Inter_MSFontService,sans-serif" font-weight="700" font-size="14.6667" transform="matrix(1 0 0 0.999583 146.467 207)">High</text><text fill="#FFFFFF" font-family="Inter,Inter_MSFontService,sans-serif" font-weight="700" font-size="14.6667" transform="matrix(1 0 0 0.999583 183.482 207)">share</text><text fill="#FFFFFF" font-family="Inter,Inter_MSFontService,sans-serif" font-weight="700" font-size="14.6667" transform="matrix(1 0 0 0.999583 227.501 207)">goods</text><text fill="#FFFFFF" font-family="Inter,Inter_MSFontService,sans-serif" font-weight="400" font-size="14.6667" transform="matrix(1 0 0 0.999583 63.7656 242)">Goods with strong global export presence</text><text fill="#FFFFFF" font-family="Inter,Inter_MSFontService,sans-serif" font-weight="400" font-size="14.6667" transform="matrix(1 0 0 0.999583 73.9365 259)">but below</text><text fill="#FFFFFF" font-family="Inter,Inter_MSFontService,sans-serif" font-weight="400" font-size="14.6667" transform="matrix(1 0 0 0.999583 142.465 259)">-</text><text fill="#FFFFFF" font-family="Inter,Inter_MSFontService,sans-serif" font-weight="400" font-size="14.6667" transform="matrix(1 0 0 0.999583 149.135 259)">median market share for the</text><text fill="#FFFFFF" font-family="Inter,Inter_MSFontService,sans-serif" font-weight="400" font-size="14.6667" transform="matrix(1 0 0 0.999583 180.728 277)">country.</text></g></svg>