<svg width="1280" height="720" xmlns="http://www.w3.org/2000/svg" xmlns:xlink="http://www.w3.org/1999/xlink" overflow="hidden"><g><rect x="0" y="0" width="1280" height="720" fill="#FFFFFF"/><path d="M301.5 362.5C301.5 176.38 453.947 25.5001 642 25.5001 830.053 25.5001 982.5 176.38 982.5 362.5 982.5 548.62 830.053 699.5 642 699.5 453.947 699.5 301.5 548.62 301.5 362.5Z" stroke="#000000" stroke-width="3" stroke-miterlimit="8" fill="none" fill-rule="evenodd"/><path d="M409 360C409 229.109 512.422 123 640 123 767.578 123 871 229.109 871 360 871 490.891 767.578 597 640 597 512.422 597 409 490.891 409 360Z" stroke="#042433" stroke-width="2" stroke-miterlimit="8" fill="none" fill-rule="evenodd"/><path d="M524 360C524 294.278 575.935 241 640 241 704.065 241 756 294.278 756 360 756 425.722 704.065 479 640 479 575.935 479 524 425.722 524 360Z" stroke="#042433" stroke-width="2" stroke-miterlimit="8" fill="none" fill-rule="evenodd"/><text font-family="Inter Tight,Inter Tight_MSFontService,sans-serif" font-weight="700" font-size="24" transform="translate(580.751 657)">HS6</text><text font-family="Inter Tight,Inter Tight_MSFontService,sans-serif" font-weight="700" font-size="24" transform="translate(632.917 657)">-</text><text font-family="Inter Tight,Inter Tight_MSFontService,sans-serif" font-weight="700" font-size="24" transform="translate(643.417 657)"></text><text font-family="Inter Tight,Inter Tight_MSFontService,sans-serif" font-weight="700" font-size="24" transform="translate(648.251 657)">Code</text><text font-family="Inter Tight,Inter Tight_MSFontService,sans-serif" font-weight="700" font-size="24" transform="translate(707.417 657)"></text><text font-family="Inter Tight,Inter Tight_MSFontService,sans-serif" font-weight="700" font-size="24" transform="translate(577.066 546)">HS4</text><text font-family="Inter Tight,Inter Tight_MSFontService,sans-serif" font-weight="700" font-size="24" transform="translate(629.566 546)">-</text><text font-family="Inter Tight,Inter Tight_MSFontService,sans-serif" font-weight="700" font-size="24" transform="translate(640.066 546)"></text><text font-family="Inter Tight,Inter Tight_MSFontService,sans-serif" font-weight="700" font-size="24" transform="translate(644.9 546)">Code</text><text font-family="Inter Tight,Inter Tight_MSFontService,sans-serif" font-weight="700" font-size="24" transform="translate(704.066 546)"></text></g></svg>